<?xml version="1.0" encoding="UTF-8" standalone="no"?>
<!DOCTYPE svg PUBLIC "-//W3C//DTD SVG 1.1//EN" "http://www.w3.org/Graphics/SVG/1.1/DTD/svg11.dtd">
<!-- Généré par Microsoft Visio, SVG Export nucleotic-logiciel-clair-small.svg Page 1 -->
<svg xmlns="http://www.w3.org/2000/svg" xmlns:xlink="http://www.w3.org/1999/xlink" xmlns:ev="http://www.w3.org/2001/xml-events"
		xmlns:v="http://schemas.microsoft.com/visio/2003/SVGExtensions/" width="1.03331in" height="1.15251in"
		viewBox="0 0 74.398 82.9806" xml:space="preserve" color-interpolation-filters="sRGB" class="st2">
	<v:documentProperties v:langID="1036" v:metric="true" v:viewMarkup="false"/>

	<style type="text/css">
	<![CDATA[
		.st1 {fill:#ffffff;stroke:none;stroke-linecap:round;stroke-linejoin:round;stroke-width:0.75}
		.st2 {fill:none;fill-rule:evenodd;font-size:12px;overflow:visible;stroke-linecap:square;stroke-miterlimit:3}
	]]>
	</style>

	<g v:mID="0" v:index="1" v:groupContext="foregroundPage">
		<title>Page 1</title>
		<v:pageProperties v:drawingScale="0.0393701" v:pageScale="0.0393701" v:drawingUnits="24" v:shadowOffsetX="8.50394"
				v:shadowOffsetY="-8.50394"/>
		<g id="group1-1" v:mID="1" v:groupContext="group">
			<title>Feuille.1</title>
			<g id="shape2-2" v:mID="2" v:groupContext="shape" transform="translate(29.5792,-29.2202)">
				<title>Feuille.2</title>
				<path d="M16.68 58.92 C15.06 57.48 12.72 56.7 9.6 56.7 L0 56.7 L0 82.98 L5.52 82.98 L5.52 62.04 L9.66 62.04 L9.66
							 62.04 C10.92 62.04 11.94 62.34 12.66 62.88 C13.32 63.36 13.62 64.14 13.62 65.28 L13.62 82.98 L19.14
							 82.98 L19.14 65.76 L19.14 65.76 C19.14 62.7 18.3 60.42 16.68 58.92 Z" class="st1"/>
			</g>
			<g id="shape3-4" v:mID="3" v:groupContext="shape" transform="translate(21.9594,-55.6204)">
				<title>Feuille.3</title>
				<path d="M1.74 82.98 L0 79.98 L8.94 74.76 L10.68 77.76 L1.74 82.98 L1.74 82.98 Z" class="st1"/>
			</g>
			<g id="shape4-6" v:mID="4" v:groupContext="shape" transform="translate(42.4789,-19.5002)">
				<title>Feuille.4</title>
				<path d="M1.74 82.98 L0 79.98 L8.94 74.82 L10.68 77.82 L1.74 82.98 L1.74 82.98 Z" class="st1"/>
			</g>
			<g id="shape5-8" v:mID="5" v:groupContext="shape" transform="translate(27.7193,-64.0805)">
				<title>Feuille.5</title>
				<path d="M9.48 68.76 C6.84 68.76 4.68 70.86 4.68 73.5 C4.68 76.2 6.84 78.3 9.48 78.3 C12.12 78.3 14.28 76.2 14.28
							 73.5 C14.28 70.86 12.12 68.76 9.48 68.76 ZM9.48 82.98 C4.26 82.98 0 78.72 0 73.5 C0 68.34 4.26 64.08
							 9.48 64.08 C14.7 64.08 18.9 68.34 18.9 73.5 C18.9 78.72 14.7 82.98 9.48 82.98 Z" class="st1"/>
			</g>
			<g id="shape6-10" v:mID="6" v:groupContext="shape" transform="translate(55.4985,-48.0604)">
				<title>Feuille.6</title>
				<path d="M9.42 68.76 C6.78 68.76 4.62 70.86 4.62 73.56 C4.62 76.2 6.78 78.3 9.42 78.3 C12.06 78.3 14.22 76.2 14.22
							 73.56 C14.22 70.86 12.06 68.76 9.42 68.76 ZM9.42 82.98 C4.2 82.98 0 78.72 0 73.56 C-0 68.34 4.2 64.08
							 9.42 64.08 C14.64 64.08 18.9 68.34 18.9 73.56 C18.9 78.72 14.64 82.98 9.42 82.98 Z" class="st1"/>
			</g>
			<g id="shape7-12" v:mID="7" v:groupContext="shape" transform="translate(55.4985,-16.0201)">
				<title>Feuille.7</title>
				<path d="M9.42 68.76 C6.78 68.76 4.62 70.92 4.62 73.56 C4.62 76.2 6.78 78.36 9.42 78.36 C12.06 78.36 14.22 76.2 14.22
							 73.56 C14.22 70.92 12.06 68.76 9.42 68.76 ZM9.42 82.98 C4.2 82.98 0 78.72 0 73.56 C-0 68.34 4.2 64.08
							 9.42 64.08 C14.64 64.08 18.9 68.34 18.9 73.56 C18.9 78.72 14.64 82.98 9.42 82.98 Z" class="st1"/>
			</g>
			<g id="shape8-14" v:mID="8" v:groupContext="shape" transform="translate(27.7193,0)">
				<title>Feuille.8</title>
				<path d="M9.48 68.76 C6.84 68.76 4.68 70.92 4.68 73.56 C4.68 76.2 6.84 78.36 9.48 78.36 C12.12 78.36 14.28 76.2 14.28
							 73.56 C14.28 70.92 12.12 68.76 9.48 68.76 ZM9.48 82.98 C4.26 82.98 0 78.72 0 73.56 C0 68.34 4.26 64.08
							 9.48 64.08 C14.7 64.08 18.9 68.34 18.9 73.56 C18.9 78.72 14.7 82.98 9.48 82.98 Z" class="st1"/>
			</g>
			<g id="shape9-16" v:mID="9" v:groupContext="shape" transform="translate(0,-16.0201)">
				<title>Feuille.9</title>
				<path d="M9.42 68.76 C6.78 68.76 4.62 70.92 4.62 73.56 C4.62 76.2 6.78 78.36 9.42 78.36 C12.06 78.36 14.22 76.2 14.22
							 73.56 C14.22 70.92 12.06 68.76 9.42 68.76 ZM9.42 82.98 C4.2 82.98 0 78.72 0 73.56 C-0 68.34 4.2 64.08
							 9.42 64.08 C14.64 64.08 18.9 68.34 18.9 73.56 C18.9 78.72 14.64 82.98 9.42 82.98 Z" class="st1"/>
			</g>
			<g id="shape10-18" v:mID="10" v:groupContext="shape" transform="translate(0,-48.0604)">
				<title>Feuille.10</title>
				<path d="M9.42 68.76 C6.78 68.76 4.62 70.86 4.62 73.56 C4.62 76.2 6.78 78.3 9.42 78.3 C12.06 78.3 14.22 76.2 14.22
							 73.56 C14.22 70.86 12.06 68.76 9.42 68.76 ZM9.42 82.98 C4.2 82.98 0 78.72 0 73.56 C-0 68.34 4.2 64.08
							 9.42 64.08 C14.64 64.08 18.9 68.34 18.9 73.56 C18.9 78.72 14.64 82.98 9.42 82.98 Z" class="st1"/>
			</g>
			<g id="shape11-20" v:mID="11" v:groupContext="shape" transform="translate(41.8189,-58.8605)">
				<title>Feuille.11</title>
				<path d="M18.48 78.96 L2.34 69.66 C2.04 71.28 1.2 72.66 0 73.68 L16.14 82.98 C16.44 81.36 17.28 79.98 18.48 78.96
							 Z" class="st1"/>
			</g>
			<g id="shape12-22" v:mID="12" v:groupContext="shape" transform="translate(62.6383,-32.1602)">
				<title>Feuille.12</title>
				<path d="M2.28 82.56 C3.12 82.56 3.9 82.74 4.62 82.98 L4.62 64.32 C3.9 64.56 3.12 64.74 2.28 64.74 C1.5 64.74 0.72
							 64.56 0 64.32 L0 82.98 C0.72 82.74 1.5 82.56 2.28 82.56 Z" class="st1"/>
			</g>
			<g id="shape13-24" v:mID="13" v:groupContext="shape" transform="translate(41.8189,-10.8001)">
				<title>Feuille.13</title>
				<path d="M2.34 82.98 L18.48 73.68 C17.28 72.66 16.44 71.28 16.14 69.66 L0 78.96 C1.2 79.98 2.04 81.42 2.34 82.98 Z"
						class="st1"/>
			</g>
			<g id="shape14-26" v:mID="14" v:groupContext="shape" transform="translate(14.0396,-58.8605)">
				<title>Feuille.14</title>
				<path d="M2.4 82.98 L18.48 73.68 C17.34 72.66 16.44 71.28 16.14 69.66 L0 78.96 C1.2 79.98 2.04 81.36 2.4 82.98 Z"
						class="st1"/>
			</g>
			<g id="shape15-28" v:mID="15" v:groupContext="shape" transform="translate(7.07981,-32.1602)">
				<title>Feuille.15</title>
				<path d="M2.34 64.74 C1.56 64.74 0.78 64.56 0 64.32 L0 82.98 C0.78 82.74 1.56 82.56 2.34 82.56 C3.18 82.56 3.96 82.74
							 4.68 82.98 L4.68 64.32 C3.96 64.56 3.18 64.74 2.34 64.74 Z" class="st1"/>
			</g>
			<g id="shape16-30" v:mID="16" v:groupContext="shape" transform="translate(14.0396,-10.8001)">
				<title>Feuille.16</title>
				<path d="M0 73.68 L16.14 82.98 C16.44 81.42 17.34 79.98 18.48 78.96 L2.4 69.66 C2.04 71.28 1.2 72.66 0 73.68 Z"
						class="st1"/>
			</g>
		</g>
	</g>
</svg>
